<svg id="Layer_5" enable-background="new 0 0 64 64" height="512" viewBox="0 0 64 64" width="512" xmlns="http://www.w3.org/2000/svg"><path d="m23.192 49.433h1.986v1.999h-1.986z" transform="matrix(.821 -.572 .572 .821 -24.483 22.869)"/><path d="m25.514 42.737h16.583v1.999h-16.583z" transform="matrix(.821 -.572 .572 .821 -18.931 27.166)"/><path d="m60.365 14.588c-.332-1.159-.795-2.275-1.381-3.332l1.426-2.303-5.363-5.363-2.303 1.426c-1.057-.586-2.173-1.049-3.332-1.381l-.62-2.635h-7.584l-.62 2.635c-1.159.332-2.275.795-3.332 1.381l-2.303-1.426-5.363 5.363 1.426 2.303c-.586 1.057-1.049 2.173-1.381 3.332l-2.635.62v1.916c-.473.119-.925.32-1.316.614l-6.751 5.062c-.172.129-.385.2-.6.2h-2.444c1.301-1.272 2.111-3.042 2.111-5 0-3.859-3.141-7-7-7s-7 3.141-7 7c0 2.288 1.108 4.316 2.811 5.594-3.391 1.291-5.811 4.567-5.811 8.406v8 19c0 2.206 1.794 4 4 4h58v-40.208-1.792-5.792zm-54.365 3.412c0-2.757 2.243-5 5-5s5 2.243 5 5-2.243 5-5 5-5-2.243-5-5zm-3 14c0-3.859 3.141-7 7-7h8.333c.646 0 1.285-.214 1.8-.601l6.75-5.062c.291-.217.65-.337 1.013-.337h.418c.929 0 1.686.757 1.686 1.687 0 .524-.237 1.009-.651 1.331l-6.338 4.93c-.872.678-1.962 1.052-3.07 1.052h-7.941v11h4c1.654 0 3 1.346 3 3v8.999c0 1.104-.897 2.001-2.001 2.001-.534 0-1.037-.208-1.415-.586-.377-.378-.585-.88-.585-1.414l.001-6c0-1.103-.897-2-2-2h-7c-1.654 0-3-1.346-3-3zm13 5h-2v-7h5.941c1.55 0 3.076-.523 4.298-1.475l5.633-4.381c.305.898.682 1.769 1.144 2.6l-1.426 2.303 5.363 5.363 2.303-1.426c.629.349 1.285.639 1.953.899l-18.209 12.675v-4.558c0-2.757-2.243-5-5-5zm-7 8h4l-.001 5.998v.001c0 .348.059.683.144 1.011l-4.143 2.895zm-6 14v-15.026c.838.635 1.87 1.026 3 1.026h1v14c0 1.103-.897 2-2 2s-2-.897-2-2zm58 2h-52.556c.344-.591.556-1.268.556-2v-1.655l5.12-3.578c.018.019.031.042.05.061.756.756 1.761 1.172 2.829 1.172 2.206 0 4.001-1.795 4.001-4.001v-2.005l19.789-13.774.419 1.78h7.584l.62-2.635c1.159-.332 2.275-.795 3.332-1.381l2.303 1.426 5.363-5.363-1.426-2.303c.586-1.057 1.049-2.173 1.381-3.332l.635-.149zm0-39.792-2.273.535-.146.596c-.336 1.376-.881 2.688-1.617 3.903l-.318.523 1.229 1.986-3.123 3.123-1.986-1.229-.523.318c-1.215.736-2.527 1.281-3.903 1.617l-.596.146-.536 2.274h-4.416l-.535-2.273-.596-.146c-1.376-.336-2.688-.881-3.903-1.617l-.523-.318-1.986 1.229-3.123-3.123 1.229-1.986-.318-.523c-.7-1.154-1.22-2.398-1.559-3.7.327-.557.522-1.187.522-1.856 0-1.798-1.295-3.294-3-3.617v-.277l2.273-.535.146-.596c.336-1.376.881-2.688 1.617-3.903l.318-.523-1.229-1.986 3.123-3.123 1.986 1.229.523-.318c1.215-.736 2.527-1.281 3.903-1.617l.596-.146.536-2.275h4.416l.535 2.273.596.146c1.376.336 2.688.881 3.903 1.617l.523.318 1.986-1.229 3.123 3.123-1.229 1.986.318.523c.736 1.215 1.281 2.527 1.617 3.903l.146.596 2.274.536v4.208z"/><path d="m45 7c-6.617 0-12 5.383-12 12s5.383 12 12 12 12-5.383 12-12-5.383-12-12-12zm0 22c-5.514 0-10-4.486-10-10s4.486-10 10-10 10 4.486 10 10-4.486 10-10 10z"/><path d="m45 13c-3.309 0-6 2.691-6 6s2.691 6 6 6 6-2.691 6-6-2.691-6-6-6zm0 10c-2.206 0-4-1.794-4-4s1.794-4 4-4 4 1.794 4 4-1.794 4-4 4z"/><path d="m57 57h2v2h-2z"/><path d="m57 53h2v2h-2z"/><path d="m57 49h2v2h-2z"/><path d="m11 57h2v2h-2z"/><path d="m15 57h2v2h-2z"/><path d="m19 57h2v2h-2z"/></svg>