<?xml version="1.0" encoding="iso-8859-1"?>
<!-- Generator: Adobe Illustrator 19.0.0, SVG Export Plug-In . SVG Version: 6.00 Build 0)  -->
<svg version="1.1" id="Capa_1" xmlns="http://www.w3.org/2000/svg" xmlns:xlink="http://www.w3.org/1999/xlink" x="0px" y="0px"
	 viewBox="0 0 512 512" style="enable-background:new 0 0 512 512;" xml:space="preserve">
<g>
	<path style="fill:#FF991F;" d="M440.518,379.65l3.822,1.026c19.478-0.042,35.235-15.388,35.195-34.277l-0.16-74.918
		c-0.07-32.957-21.128-61.097-50.873-72.601c-29.873,11.55-50.967,39.866-50.896,72.946l0.16,74.917l40.414,10.852l0.301,140.724
		l22.292-0.047L440.518,379.65z"/>
	<path style="fill:#FF991F;" d="M215.686,346.572v-74.918c0-33.06-21.128-61.316-50.996-72.816
		c-29.867,11.5-50.996,39.756-50.996,72.816v74.918c0,18.889,15.79,34.202,35.268,34.202l5.122-1.387v118.976h22.513V357.157
		L215.686,346.572z"/>
</g>
<path style="fill:#FFFFFF;" d="M265.413,365.007c-22.09,0-39.997-17.366-39.997-38.787v-84.963
	c0-40.555,28.022-74.761,66.314-85.408c-8.036-2.234-16.522-3.433-25.299-3.433h-0.001c-50.596,0-91.612,39.776-91.612,88.842
	v84.963c0,21.422,17.907,38.787,39.997,38.787h5.809v133.355h50.598V365.007H265.413z"/>
<g>
	<path style="fill:#FFD41D;" d="M318.046,365.007c22.09,0,39.997-17.366,39.997-38.787v-84.963
		c0-40.555-28.022-74.761-66.313-85.408c-38.291,10.647-66.314,44.853-66.314,85.408v84.963c0,21.422,17.908,38.787,39.997,38.787
		h5.809v133.355h42.492V365.007H318.046z"/>
	<path style="fill:#FFD41D;" d="M281.163,70.839C266.331,77.523,256,92.424,256,109.747s10.331,32.226,25.163,38.909
		c14.832-6.683,25.163-21.585,25.163-38.909S295.995,77.523,281.163,70.839z"/>
</g>
<g>
	<path style="fill:#FF991F;" d="M411.404,121.421c-13.07,5.919-22.154,19.08-22.122,34.359c0.033,15.221,9.106,28.302,22.122,34.198
		c13.069-5.919,22.154-19.08,22.122-34.359C433.493,140.397,424.42,127.316,411.404,121.421z"/>
	<path style="fill:#FF991F;" d="M147.962,121.415c-13.043,5.907-22.122,19.028-22.122,34.278s9.079,28.371,22.122,34.278
		c13.043-5.907,22.122-19.028,22.122-34.278S161.005,127.322,147.962,121.415z"/>
	<path style="fill:#FF991F;" d="M180.925,17.507C170.535,23.055,163.462,34,163.462,46.6s7.073,23.546,17.463,29.093
		c10.39-5.547,17.463-16.492,17.463-29.093C198.387,34,191.314,23.055,180.925,17.507z"/>
	<path style="fill:#FF991F;" d="M375.741,17.507C365.351,23.055,358.278,34,358.278,46.6s7.073,23.546,17.463,29.093
		c10.39-5.547,17.463-16.492,17.463-29.093S386.131,23.055,375.741,17.507z"/>
</g>
<path d="M165.425,89.564c23.689,0,42.963-19.273,42.963-42.963c0-23.689-19.273-42.962-42.963-42.962s-42.963,19.273-42.963,42.962
	C122.462,70.29,141.735,89.564,165.425,89.564z M165.425,23.638c12.662,0,22.963,10.301,22.963,22.962s-10.301,22.963-22.963,22.963
	s-22.963-10.301-22.963-22.963S152.763,23.638,165.425,23.638z"/>
<path d="M360.241,89.564c23.689,0,42.963-19.273,42.963-42.963c0-23.689-19.273-42.962-42.963-42.962s-42.963,19.273-42.963,42.962
	C317.278,70.29,336.552,89.564,360.241,89.564z M360.241,23.638c12.662,0,22.963,10.301,22.963,22.962s-10.301,22.963-22.963,22.963
	s-22.963-10.301-22.963-22.963S347.579,23.638,360.241,23.638z"/>
<path d="M502,488.362h-51.25l-0.458-214.212c-0.012-5.516-4.486-9.979-10-9.979c-0.007,0-0.015,0-0.021,0
	c-5.522,0.012-9.99,4.499-9.979,10.021l0.457,214.169h-62.082l-0.458-234.035c-0.001-0.6-0.064-1.185-0.167-1.756v-11.314
	c0-9.913-1.498-19.625-4.449-28.979c10.591-5.85,22.498-8.934,34.856-8.961c0.055,0,0.106,0,0.161,0
	c18.902,0,36.67,7.105,50.04,20.016c13.326,12.868,20.686,29.975,20.725,48.185l0.16,44.661c0.02,5.511,4.493,9.964,9.999,9.964
	c0.013,0,0.024,0,0.037,0c5.522-0.02,9.983-4.513,9.964-10.036l-0.16-44.646c-0.05-23.654-9.579-45.856-26.832-62.515
	c-9.36-9.038-20.393-15.835-32.406-20.157c8.66-8.954,13.416-20.707,13.389-33.19c-0.057-26.225-21.409-47.52-47.621-47.52
	c-0.034,0-0.069,0-0.103,0c-26.258,0.057-47.575,21.465-47.52,47.723c0.027,12.721,5.006,24.669,14.02,33.645
	c0.296,0.295,0.604,0.573,0.906,0.859c-2.577,1.065-5.106,2.25-7.583,3.551c-12.203-21.813-32.125-38.03-55.693-45.978
	c10.087-9.6,16.394-23.138,16.394-38.13c0-29.041-23.626-52.667-52.666-52.667s-52.666,23.626-52.666,52.667
	c0,15.76,6.967,29.914,17.972,39.574c-21.729,8.342-40.06,23.839-51.582,44.276c-3.501-1.812-7.107-3.392-10.799-4.733
	c8.345-8.582,13.499-20.283,13.499-33.171c0-26.259-21.363-47.622-47.622-47.622S84.84,129.434,84.84,155.693
	c0,13.583,5.725,25.846,14.878,34.529c-32.632,13.402-55.594,44.856-55.594,81.431v44.661c0,5.523,4.478,10,10,10s10-4.477,10-10
	v-44.661c0-37.682,31.752-68.338,70.781-68.338c12.188,0,23.958,2.979,34.459,8.659c-3.015,9.447-4.546,19.261-4.546,29.281v78.109
	v6.854v162.142h-60.304V274.26c0-5.523-4.478-10-10-10s-10,4.477-10,10v214.102H10c-5.522,0-10,4.477-10,10s4.478,10,10,10h84.515
	H502c5.522,0,10-4.477,10-10S507.522,488.362,502,488.362z M323.715,374.684c9.228-1.021,17.699-4.502,24.711-9.755l0.242,123.432
	h-24.953V374.684z M395.845,128.077c0.021,0,0.039,0,0.059,0c15.203,0,27.589,12.353,27.622,27.563
	c0.016,7.378-2.843,14.32-8.048,19.549c-5.206,5.228-12.137,8.116-19.515,8.132c-0.021,0-0.04,0-0.061,0
	c-7.355,0-14.274-2.857-19.488-8.048c-5.229-5.206-8.116-12.136-8.132-19.514C368.25,140.529,380.614,128.11,395.845,128.077z
	 M263.66,77.081c18.012,0,32.666,14.654,32.666,32.667s-14.654,32.667-32.666,32.667s-32.666-14.654-32.666-32.667
	S245.648,77.081,263.66,77.081z M266.431,162.414c33.536,0,63.277,19.43,75.77,49.499c3.877,9.333,5.843,19.205,5.843,29.342v84.963
	c0,14.013-10.49,25.713-24.328,28.265V244.212c0-5.523-4.478-10-10-10s-10,4.477-10,10v244.15h-28.762V367.618
	c0-5.523-4.478-10-10-10s-10,4.477-10,10v120.743h-24.328v-244.15c0-5.523-4.478-10-10-10s-10,4.477-10,10V354.72
	c-14.563-1.963-25.807-13.992-25.807-28.5v-6.854v-78.109c0-10.235,2.006-20.199,5.959-29.615c0.008-0.019,0.015-0.038,0.023-0.058
	C203.375,181.714,233.058,162.414,266.431,162.414z M132.462,128.072c15.23,0,27.622,12.391,27.622,27.622
	c0,15.231-12.392,27.622-27.622,27.622s-27.622-12.391-27.622-27.622C104.84,140.464,117.231,128.072,132.462,128.072z
	 M184.818,365.223c7.312,5.368,16.177,8.815,25.807,9.599v113.539h-25.807V365.223z"/>
<circle cx="479.54" cy="355.47" r="10"/>
<circle cx="54.12" cy="355.47" r="10"/>
<g>
</g>
<g>
</g>
<g>
</g>
<g>
</g>
<g>
</g>
<g>
</g>
<g>
</g>
<g>
</g>
<g>
</g>
<g>
</g>
<g>
</g>
<g>
</g>
<g>
</g>
<g>
</g>
<g>
</g>
</svg>
