<svg id="Capa_1" enable-background="new 0 0 512 512" height="512" viewBox="0 0 512 512" width="512" xmlns="http://www.w3.org/2000/svg"><g><g><g><g><g><circle cx="256" cy="237.623" fill="#31a7fb" r="175.577"/><path d="m196.512 265.478v23.169c0 1.487-.387 2.948-1.123 4.239l-47.375 83.179c-41.14-32.129-67.591-82.195-67.591-138.445 0-31.838 8.471-61.689 23.281-87.428l53.142 25.017c2.575 1.212 4.38 3.624 4.816 6.436l1.994 12.849c.545 3.515-1.139 7.002-4.232 8.76l-22.586 12.838c-2.547 1.447-4.177 4.096-4.322 7.022l-.925 18.603c-.191 3.849 2.212 7.352 5.872 8.56l25.371 8.368c1.139.376 2.344.508 3.537.388l20.719-2.077c5.046-.506 9.422 3.454 9.422 8.522z" fill="#27e19d"/><path d="m431.576 237.621c0 96.97-78.606 175.576-175.576 175.576-19.178 0-37.645-3.075-54.922-8.771 5.807.582 11.692.882 17.645.882 96.97 0 175.576-78.606 175.576-175.576 0-77.784-50.579-143.755-120.654-166.805 88.687 8.839 157.931 83.676 157.931 174.694z" fill="#1c96f9"/><path d="m258.698 113.026 20.035-9.002c1.97-.882 4.189-.994 6.236-.308l23.478 7.872c4.386 1.473 6.81 6.176 5.473 10.604l-14.835 49.003c-.857 2.818-3.092 5.002-5.936 5.782l-27.966 7.657c-2.792.762-5.002 2.887-5.893 5.645l-6.767 21.071c-.711 2.21-.497 4.608.591 6.655l18.604 34.853c1.962 3.675 6.279 5.405 10.236 4.103l29.431-9.705c3.041-1.002 5.259-3.606 5.773-6.767l6.219-38.374c.642-4 3.991-6.989 8.034-7.186l17.662-.865c3.126-.154 6.09 1.413 7.726 4.077l9.122 14.895c1.259 2.047 1.593 4.531.934 6.835l-15.298 53.295c-.659 2.27-2.227 4.18-4.334 5.259l-67.06 34.356c-3.058 1.567-4.891 4.823-4.634 8.257l1.071 14.374c.389 5.22 4.738 9.257 9.972 9.257h108.59c22.433-29.119 35.94-65.471 36.401-104.962 1.134-97.253-77.965-177.479-175.224-177.663-16.918-.032-33.282 2.325-48.761 6.766l11.872 32.463c.985 2.672 3.221 4.685 5.987 5.371l27.692 6.878c1.86.463 3.822.283 5.569-.496z" fill="#27e19d"/><path d="m394.299 229.731c0 43.96-16.168 84.137-42.87 114.939h43.734c22.828-29.631 36.413-66.752 36.413-107.05 0-91-69.244-165.846-157.923-174.694 70.066 23.059 120.646 89.022 120.646 166.805z" fill="#26d192"/></g></g></g><g><g><path d="m266.282 422.229c.045-14.896-12.018-26.996-26.914-26.996h-52.282l-19.591-19.591c7.421-.333 14.684-3.885 19.469-10.513 7.355-10.189 5.848-24.313-3.037-33.198l-65.702-65.702-30.565-30.565c-11.812-11.812-27.832-18.447-44.536-18.447h-35.623c.001 35.558.024 71.116.122 106.674h32.875c5.261 0 10.307 2.09 14.028 5.811l110.302 110.302c5.8 5.8 13.668 9.059 21.871 9.059h52.67c14.831-.002 26.868-12.002 26.913-26.834z" fill="#c86f5c"/><path d="m186.96 365.125c-3.22 4.46-7.57 7.53-12.33 9.16.52-7.35-2.15-14.88-7.66-20.4l-65.71-65.7-30.56-30.56c-11.81-11.81-27.83-18.45-44.54-18.45h-18.65c-.01-7.32-.01-14.64-.01-21.96h35.62c16.71 0 32.73 6.64 44.54 18.45l96.27 96.27c8.88 8.881 10.39 23.001 3.03 33.19z" fill="#ba5d4f"/></g><g><path d="m245.718 422.229c-.045-14.896 12.018-26.996 26.914-26.996h52.282l19.591-19.591c-7.421-.333-14.684-3.885-19.469-10.513-7.355-10.189-5.848-24.313 3.037-33.198l65.702-65.702 30.565-30.565c11.812-11.812 27.832-18.447 44.536-18.447h35.623c-.001 35.558-.024 71.116-.122 106.674h-32.875c-5.261 0-10.307 2.09-14.028 5.811l-110.301 110.3c-5.8 5.8-13.668 9.059-21.871 9.059h-52.67c-14.832 0-26.869-12-26.914-26.832z" fill="#ffcec0"/><path d="m504.43 302.006c-.01 7.29-.03 14.59-.05 21.88h-32.88c-5.26 0-10.3 2.09-14.02 5.82l-110.31 110.3c-5.8 5.8-13.66 9.06-21.87 9.06h-52.67c-14.71 0-26.67-11.8-26.9-26.47 4.29 2.89 9.46 4.58 15.02 4.58h52.67c8.2 0 16.07-3.26 21.87-9.06l110.3-110.3c3.72-3.72 8.77-5.81 14.03-5.81z" fill="#fdb0a0"/></g></g></g><g><path d="m273.333 70.433c30.827 3.159 60.153 14.817 84.81 33.715 1.361 1.043 2.965 1.547 4.557 1.547 2.254 0 4.482-1.011 5.959-2.938 2.52-3.288 1.896-7.995-1.391-10.516-26.861-20.587-58.814-33.288-92.405-36.73-4.119-.422-7.803 2.576-8.226 6.696-.422 4.12 2.576 7.804 6.696 8.226z"/><path d="m504.378 316.39h-32.875c-7.302 0-14.167 2.844-19.331 8.007l-110.302 110.301c-4.425 4.426-10.309 6.863-16.567 6.863h-52.67c-10.673 0-19.382-8.683-19.414-19.356-.016-5.196 1.996-10.085 5.665-13.766 3.669-3.68 8.552-5.707 13.749-5.707h52.282c1.989 0 3.896-.79 5.304-2.196l17.428-17.428c7.981-.485 15.557-3.858 21.278-9.592l67.958-68.021c2.928-2.931 2.926-7.679-.005-10.606-2.93-2.928-7.679-2.925-10.606.005l-67.962 68.025c-3.688 3.697-8.789 5.593-14.001 5.207-5.207-.389-9.973-3.024-13.076-7.232-5.207-7.059-4.288-17.227 2.137-23.65l96.276-96.276c10.479-10.479 24.412-16.251 39.231-16.251h35.623c4.143 0 7.5-3.357 7.5-7.5s-3.357-7.5-7.5-7.5h-35.623c-10.916 0-21.446 2.48-30.969 7.146-4.117-36.703-19.005-70.748-43.369-98.926-2.709-3.134-7.446-3.476-10.579-.769-3.134 2.71-3.478 7.446-.769 10.579 24.033 27.794 38.026 61.801 40.495 98.372-1.599 1.341-3.155 2.747-4.648 4.24l-96.276 96.276c-3.097 3.098-5.472 6.689-7.119 10.534h-29.07c-1.302 0-2.396-1.017-2.493-2.314l-1.071-14.376c-.032-.419.2-.83.574-1.022l67.058-34.355c3.927-2.011 6.886-5.598 8.125-9.865l15.301-53.301c1.237-4.325.598-9.001-1.749-12.815l-9.127-14.902c-3.073-5.006-8.646-7.919-14.484-7.645l-17.658.865c-7.541.366-13.881 6.039-15.074 13.477l-6.218 38.369c-.066.405-.335.722-.72.849l-29.427 9.704c-.492.16-1.03-.053-1.275-.512l-18.598-34.84c-.139-.26-.165-.558-.073-.843l6.763-21.06c.114-.354.388-.62.737-.716l27.968-7.658c5.354-1.467 9.515-5.518 11.133-10.842l14.837-49.011c2.524-8.366-1.985-17.099-10.27-19.881l-23.48-7.872c-3.838-1.286-7.987-1.082-11.692.579l-20.016 8.993c-.225.101-.471.125-.704.067l-27.696-6.879c-.346-.085-.627-.341-.747-.667l-9.024-24.677c6.997-1.66 14.157-2.883 21.453-3.618 4.121-.415 7.125-4.094 6.709-8.215-.415-4.12-4.079-7.137-8.215-6.709-43.166 4.354-83.531 24.077-113.659 55.536-27.76 28.987-45.159 66.24-49.66 105.854-9.525-4.669-20.059-7.151-30.978-7.151h-35.623c-4.143 0-7.5 3.357-7.5 7.5s3.357 7.5 7.5 7.5h35.623c14.819 0 28.753 5.771 39.232 16.251l16.485 16.484c1.464 1.464 3.384 2.196 5.303 2.196s3.839-.732 5.304-2.197c2.929-2.929 2.929-7.678-.001-10.606l-16.484-16.484c-1.491-1.491-3.044-2.895-4.641-4.234 1.601-23.581 8.207-45.966 18.778-66.045l46.554 21.914c.32.151.544.451.599.802l1.994 12.848c.067.436-.145.874-.526 1.091l-22.585 12.838c-4.803 2.729-7.834 7.652-8.108 13.17l-.925 18.603c-.357 7.196 4.172 13.798 11.014 16.055l25.375 8.369c2.151.708 4.386.951 6.631.727l20.721-2.077c.311-.03.587.059.82.27.232.211.351.477.351.79v23.169c0 .185-.048.365-.141.527l-13.461 23.635-40.56-40.561c-2.93-2.928-7.678-2.928-10.607 0-2.929 2.93-2.929 7.678 0 10.607l54.388 54.388c6.425 6.424 7.344 16.592 2.137 23.65-3.104 4.208-7.87 6.844-13.077 7.231-5.216.387-10.313-1.51-14.004-5.211l-67.958-68.021c-2.928-2.93-7.677-2.933-10.606-.005-2.931 2.928-2.933 7.676-.005 10.606l67.954 68.017c5.723 5.738 13.299 9.11 21.281 9.595l17.429 17.429c1.407 1.406 3.314 2.196 5.304 2.196h52.282c1.526 0 3.029.182 4.488.527-3.686 5.591-5.658 12.14-5.637 18.993.021 6.926 2.111 13.375 5.671 18.773-1.469.35-2.984.536-4.522.536h-52.67c-6.259 0-12.143-2.438-16.567-6.863l-110.305-110.302c-5.164-5.163-12.029-8.007-19.331-8.007h-32.875c-4.143 0-7.5 3.357-7.5 7.5s3.357 7.5 7.5 7.5h32.875c3.295 0 6.394 1.283 8.724 3.614l110.302 110.302c7.259 7.259 16.91 11.256 27.175 11.256h52.67c5.871 0 11.564-1.488 16.644-4.302 4.933 2.737 10.599 4.302 16.622 4.302h52.67c10.265 0 19.916-3.997 27.175-11.256l110.302-110.302c2.33-2.331 5.429-3.614 8.724-3.614h32.875c4.143 0 7.5-3.357 7.5-7.5s-3.359-7.5-7.502-7.5zm-314.187 71.343-8.406-8.407c4.299-2.283 8.092-5.511 11.055-9.528 9.573-12.98 8.024-31.535-3.602-43.162l-2.828-2.828 15.494-27.206c1.38-2.418 2.108-5.169 2.108-7.955v-23.169c0-4.531-1.927-8.873-5.287-11.913-3.359-3.039-7.87-4.513-12.381-4.072l-20.723 2.078c-.148.011-.297-.002-.437-.049l-25.372-8.368c-.453-.149-.754-.587-.729-1.064l.925-18.603c.018-.365.219-.692.537-.873l22.586-12.838c5.763-3.275 8.952-9.878 7.937-16.431l-1.994-12.85c-.819-5.282-4.196-9.795-9.032-12.072l-45.338-21.342c20.608-31.907 51.709-56.625 88.307-68.924l9.402 25.709c1.848 5.016 6.042 8.775 11.218 10.059l27.688 6.876c3.461.862 7.165.534 10.454-.934l20.026-8.998c.256-.115.529-.129.785-.042l23.475 7.871c.542.182.847.776.683 1.32l-14.832 48.996c-.109.358-.387.631-.741.729l-27.959 7.656c-5.247 1.431-9.381 5.384-11.061 10.587l-6.766 21.067c-1.323 4.112-.919 8.658 1.114 12.484l18.604 34.853c3.687 6.904 11.76 10.145 19.2 7.694l29.43-9.705c5.713-1.882 9.862-6.742 10.83-12.689l6.221-38.387c.079-.494.487-.857.996-.882l17.665-.865c.396-.009.759.176.96.503l9.13 14.907c.153.249.193.557.113.837l-15.292 53.272c-.086.294-.286.54-.552.676l-67.061 34.357c-5.763 2.954-9.175 9.034-8.692 15.488l1.071 14.373c.677 9.084 8.343 16.2 17.452 16.2h26.364c.307 6.236 2.357 12.386 6.223 17.628 2.963 4.017 6.756 7.245 11.054 9.528l-8.406 8.406h-49.176c-5.923 0-11.613 1.493-16.652 4.288-5.073-2.803-10.753-4.288-16.614-4.288h-49.174z"/><path d="m196.726 150.802c1.919 0 3.839-.732 5.304-2.196l5.518-5.518c2.929-2.93 2.929-7.678 0-10.607-2.93-2.928-7.678-2.928-10.607 0l-.214.215-.216-.215c-2.93-2.93-7.679-2.929-10.606.001-2.929 2.929-2.929 7.678.001 10.606l5.519 5.518c1.463 1.464 3.382 2.196 5.301 2.196z"/><path d="m202.457 168.87-.214.214-.214-.214c-2.93-2.929-7.679-2.93-10.606-.001-2.93 2.929-2.93 7.678-.001 10.606l5.518 5.519c1.406 1.407 3.314 2.197 5.304 2.197s3.897-.79 5.304-2.197l5.518-5.519c2.929-2.929 2.929-7.678-.001-10.606-2.931-2.929-7.68-2.928-10.608.001z"/><path d="m358.347 144.889-.214.215-.214-.215c-2.93-2.928-7.678-2.928-10.607 0-2.929 2.93-2.929 7.678 0 10.607l5.518 5.518c1.465 1.464 3.385 2.196 5.304 2.196s3.839-.732 5.304-2.196l5.518-5.518c2.929-2.93 2.929-7.678 0-10.607-2.932-2.928-7.68-2.928-10.609 0z"/><path d="m229.879 311.044-.214.215-.214-.215c-2.93-2.928-7.678-2.928-10.607 0-2.929 2.93-2.929 7.678 0 10.607l5.518 5.518c1.465 1.464 3.385 2.196 5.304 2.196s3.839-.732 5.304-2.196l5.518-5.518c2.929-2.93 2.929-7.678 0-10.607-2.931-2.928-7.679-2.928-10.609 0z"/></g></g></svg>